<svg width="91" height="92" viewBox="0 0 91 92" fill="none" xmlns="http://www.w3.org/2000/svg">
<g opacity="0.6">
<path d="M32.7254 73.3373C32.1081 72.9385 31.5834 72.6535 30.9969 72.4541C30.4002 72.2831 29.7829 72.1882 29.145 72.1692C27.8795 72.1122 26.5214 72.3116 25.1942 72.5965C23.8669 72.8815 22.6014 73.2234 21.6446 73.5083C20.7186 73.7932 20.1013 74.0211 20.1013 74.0211C20.1013 74.0211 20.6878 74.306 21.6755 74.6764C22.6323 75.0468 23.9595 75.4457 25.4102 75.6736C26.8609 75.9016 28.4351 75.9301 29.7932 75.5597C31.1821 75.2463 32.3242 74.5055 32.7254 73.3373Z" fill="white"/>
<path d="M28.6821 68.1523C29.1759 69.178 29.9476 70.1752 30.9044 70.8305C31.3983 71.1439 31.9538 71.4003 32.5403 71.4858C33.1267 71.5997 33.7441 71.5712 34.3614 71.3433C34.3923 70.1182 34.0219 69.1495 33.4354 68.2947C32.849 67.4685 31.9847 66.7562 31.1205 66.1294C30.2562 65.5026 29.3611 64.9612 28.6821 64.5908C28.003 64.2204 27.54 64.021 27.54 64.021C27.54 64.021 27.5401 64.135 27.5709 64.3629C27.6018 64.5908 27.6326 64.9327 27.7252 65.3316C27.8796 66.1009 28.1574 67.1551 28.6821 68.1523Z" fill="white"/>
<path d="M19.1447 70.8873C20.4719 70.8303 21.6448 70.3745 22.4782 69.4058C21.7991 68.3516 20.8114 67.8102 19.6077 67.4683C18.4039 67.1549 17.0149 67.0694 15.6568 67.041C14.2679 66.984 12.9098 67.0125 11.8912 67.041C10.8418 67.041 10.1936 67.0695 10.1936 67.0695C10.1936 67.0695 10.3171 67.1834 10.564 67.3829C10.8109 67.5823 11.1504 67.8672 11.5826 68.1806C12.4468 68.8074 13.6506 69.5197 15.0087 70.0611C16.3359 70.6024 17.8175 70.9443 19.1447 70.8873Z" fill="white"/>
<path d="M21.6757 66.2716C22.4164 67.1263 23.4659 67.6677 24.7622 67.6107C25.3178 66.4995 25.2252 65.4168 24.8548 64.4481C24.4845 63.4509 23.8671 62.5677 23.2189 61.7699C22.5708 61.0007 21.8917 60.3169 21.4287 59.8325C21.1818 59.6046 20.9966 59.4051 20.8423 59.2627C20.7188 59.1487 20.6262 59.0632 20.6262 59.0632C20.6262 59.0632 20.5645 59.2057 20.5028 59.4051C20.441 59.6331 20.3793 59.9465 20.3176 60.3169C20.1632 61.0861 20.1015 62.1118 20.2867 63.223C20.4719 64.3057 20.904 65.4453 21.6757 66.2716Z" fill="white"/>
<path d="M5.40926 57.9235C4.48328 57.6386 3.86597 57.4961 3.86597 57.4961C3.86597 57.4961 3.92769 57.6386 4.05115 57.8665C4.17462 58.0944 4.35981 58.4078 4.60673 58.8067C4.85366 59.1771 5.16233 59.6045 5.50185 60.0888C5.66647 60.3168 5.84138 60.5447 6.02657 60.7726L6.1809 60.9721L6.39695 61.2C6.52041 61.3329 6.65418 61.4754 6.79822 61.6274C7.87852 62.767 9.2366 63.6503 10.5638 64.0207C11.9219 64.391 13.2183 64.2771 14.2986 63.5648C13.9899 62.3966 13.2491 61.5989 12.2614 60.9151C12.0145 60.7156 11.7367 60.5732 11.4589 60.4022C11.1709 60.2313 10.8828 60.0698 10.5947 59.9179C10.286 59.7659 9.97739 59.6045 9.66873 59.4335C9.38065 59.3006 9.08227 59.1676 8.77361 59.0346C7.56985 58.5503 6.36609 58.1799 5.40926 57.9235Z" fill="white"/>
<path d="M14.6381 59.9752C14.9776 60.9724 15.811 61.8271 17.0765 62.055C17.9407 61.1148 18.2185 60.0891 18.2803 59.1204C18.342 58.1517 18.2185 57.24 18.0951 56.4707C18.0642 56.1288 17.9099 55.5875 17.7555 55.1316C17.6321 54.7042 17.4777 54.3054 17.3234 53.9635C17.1691 53.6216 17.0456 53.3652 16.953 53.1657C16.8913 52.9663 16.8296 52.8523 16.8296 52.8523C16.8296 52.8523 16.737 52.9663 16.5826 53.1657C16.4386 53.3746 16.2637 53.6501 16.0579 53.992C15.6258 54.7042 15.1319 55.673 14.7924 56.7556C14.7101 57.0216 14.6278 57.297 14.5455 57.5819C14.5043 57.8478 14.4632 58.1137 14.422 58.3797C14.4015 58.6456 14.4118 58.921 14.4529 59.2059C14.4838 59.4623 14.5455 59.7187 14.6381 59.9752Z" fill="white"/>
<path d="M3.98956 53.8208C4.20562 54.0487 4.45255 54.2481 4.69947 54.4476C4.96698 54.6375 5.23449 54.818 5.502 54.9889C6.61316 55.5872 7.81693 55.8436 9.14415 55.5017C9.23675 54.9319 9.20588 54.3906 9.02068 53.9062C8.93837 53.6593 8.82521 53.4219 8.68117 53.1939C8.52684 52.966 8.34165 52.7666 8.18732 52.5386C7.47741 51.6554 6.36624 50.9146 5.25507 50.2593C4.20564 49.5755 3.06359 48.9772 2.19935 48.5783C1.30425 48.1509 0.748657 47.8945 0.748657 47.8945C0.748657 47.8945 0.779519 48.037 0.841251 48.2934C0.933848 48.5498 1.05732 48.8917 1.21164 49.3191C1.55117 50.1739 1.98329 51.285 2.75493 52.3392C3.12532 52.852 3.52658 53.3649 3.98956 53.8208Z" fill="white"/>
<path d="M11.1194 53.3649C11.3972 53.8208 11.7676 54.2197 12.2923 54.5616C13.4961 53.9348 14.1751 53.0515 14.5455 52.0543C14.6278 51.8074 14.6998 51.5605 14.7616 51.3136C14.7821 51.1806 14.8027 51.0476 14.8233 50.9147C14.8439 50.8007 14.8644 50.6773 14.885 50.5443C14.9776 50.003 14.9776 49.4901 14.9776 49.0058C14.885 48.0086 14.8233 47.0683 14.669 46.3845C14.6072 46.0426 14.5455 45.7577 14.4838 45.5583C14.4529 45.3588 14.422 45.2449 14.422 45.2449C14.422 45.2449 14.3294 45.3588 14.1443 45.5013C13.9591 45.6723 13.7224 45.9097 13.4343 46.2136C12.8788 46.8119 12.1688 47.6952 11.5824 48.6924C11.0577 49.6896 10.7181 50.8007 10.7181 51.8834C10.7181 52.1398 10.749 52.3962 10.8416 52.6527C10.9033 52.8996 10.9959 53.137 11.1194 53.3649Z" fill="white"/>
<path d="M1.67446 44.2477C1.83908 44.5136 2.02427 44.77 2.23004 45.017C2.43581 45.2449 2.66217 45.4633 2.90909 45.6723C3.83507 46.47 4.97711 46.9259 6.33521 46.8119C6.58213 46.2706 6.64386 45.7292 6.58213 45.2164C6.56155 44.9695 6.49981 44.7226 6.39692 44.4756C6.30432 44.2192 6.21173 43.9913 6.08826 43.7348C5.84134 43.2505 5.47095 42.7661 5.0697 42.3103C4.86392 42.0823 4.65815 41.8544 4.45238 41.6265C4.24661 41.3986 4.03056 41.1706 3.80421 40.9427C2.9091 40.0879 1.92139 39.2902 1.21147 38.6918C0.501561 38.0935 0.00772021 37.7231 0.00772021 37.7231C0.00772021 37.7231 -0.0231531 38.3215 0.0385785 39.2332C0.10031 39.6891 0.192915 40.2019 0.316378 40.7717C0.37811 41.0567 0.450115 41.3511 0.532423 41.655C0.594155 41.9399 0.68676 42.2248 0.810223 42.5382C1.05715 43.108 1.33494 43.7063 1.67446 44.2477Z" fill="white"/>
<path d="M9.60695 46.1566C10.9342 45.7862 11.7984 45.0169 12.3849 44.1337C12.5289 43.9057 12.6524 43.6778 12.7553 43.4499C12.8787 43.2219 12.9919 42.9845 13.0948 42.7376C13.28 42.2532 13.4034 41.7689 13.496 41.313C13.6195 40.8286 13.7121 40.3728 13.7738 39.9454C13.815 39.7365 13.8356 39.5275 13.8356 39.3186C13.8664 39.1476 13.8664 38.9482 13.8973 38.7773C13.959 38.122 13.959 37.6946 13.959 37.6946C13.959 37.6946 13.4652 37.951 12.7244 38.4069C12.5392 38.5208 12.354 38.6443 12.1688 38.7773C11.9425 38.9292 11.7367 39.0907 11.5515 39.2616C11.1502 39.575 10.7181 39.9739 10.3169 40.4013C10.1317 40.6102 9.94647 40.8287 9.76127 41.0566C9.65839 41.1706 9.56578 41.294 9.48348 41.427C9.42174 41.5409 9.36002 41.6549 9.29829 41.7689C9.0205 42.2817 8.80444 42.7946 8.68097 43.3074C8.65011 43.5638 8.58838 43.8203 8.58838 44.0767C8.60896 44.3236 8.6604 44.5705 8.74271 44.8175C8.89704 45.3018 9.17482 45.7577 9.60695 46.1566Z" fill="white"/>
<path d="M4.85362 31.6258C4.54496 31.113 4.23631 30.6001 3.89678 30.1158C3.58813 29.6599 3.27947 29.2325 3.03255 28.8622C2.50783 28.1214 2.13743 27.6655 2.13743 27.6655C2.13743 27.6655 1.95224 28.2354 1.73618 29.1186C1.64358 29.5744 1.58186 30.0873 1.55099 30.6856C1.50984 30.9705 1.48926 31.2649 1.48926 31.5688C1.48926 31.8728 1.50984 32.1767 1.55099 32.4806C1.61272 33.1074 1.70532 33.7342 1.85965 34.3325C2.07571 34.9308 2.3535 35.5007 2.66215 35.985C3.31033 36.9822 4.35977 37.666 5.74873 37.837C5.91335 37.59 6.0471 37.3431 6.14998 37.0962C6.24258 36.8398 6.33518 36.5834 6.36605 36.3554C6.45864 35.8426 6.42778 35.3297 6.27345 34.7884C6.17057 34.2756 5.98538 33.7532 5.71787 33.2214C5.47095 32.68 5.16227 32.1387 4.85362 31.6258Z" fill="white"/>
<path d="M12.2614 36.213C12.6626 35.8711 13.033 35.4723 13.3108 35.0449C13.6503 34.646 13.9281 34.2186 14.1442 33.7913C14.2676 33.5633 14.3602 33.3639 14.4837 33.1645C14.5866 32.9555 14.6792 32.7561 14.7615 32.5661C14.9467 32.1672 15.101 31.7969 15.2245 31.4835C15.4714 30.8851 15.5949 30.4578 15.5949 30.4578C15.5949 30.4578 15.0393 30.5717 14.2059 30.8566C13.3417 31.1415 12.3231 31.5974 11.3045 32.2242C11.0576 32.3952 10.7798 32.5376 10.5637 32.7371C10.3374 32.927 10.1213 33.117 9.91557 33.3069C9.51432 33.7343 9.14393 34.1617 8.897 34.646C8.68094 35.1304 8.52661 35.6147 8.52661 36.1276C8.55748 36.3555 8.55748 36.6119 8.65008 36.8683C8.75297 37.1153 8.88672 37.3527 9.05133 37.5806C10.4403 37.4667 11.428 36.9253 12.2614 36.213Z" fill="white"/>
<path d="M8.24878 28.4351C8.43398 28.2261 8.57803 28.0077 8.68091 27.7798C8.80437 27.5328 8.89698 27.2859 8.95871 27.039C8.98958 26.7826 9.02044 26.5261 9.0513 26.2697C9.11304 25.7569 9.05131 25.187 8.95871 24.6172C8.86611 24.0474 8.74265 23.4775 8.58832 22.9077C8.24879 21.7396 7.87841 20.6854 7.56975 19.8591C7.23023 19.0329 7.01415 18.52 7.01415 18.52C7.01415 18.52 6.92157 18.634 6.79811 18.8619C6.64378 19.0899 6.45858 19.4033 6.27338 19.8306C5.8104 20.6284 5.37828 21.7681 5.10049 22.9932C5.00789 23.5915 4.91528 24.2183 4.91528 24.8451C4.91528 25.13 4.94615 25.4435 5.00788 25.7284C5.04903 26.0323 5.12106 26.3172 5.22394 26.5831C5.40914 27.1529 5.65606 27.6373 6.08818 28.0647C6.48943 28.4635 7.01415 28.8054 7.63147 29.0619C7.87839 28.8529 8.08417 28.644 8.24878 28.4351Z" fill="white"/>
<path d="M19.0828 24.0758C19.2062 23.9048 19.268 23.8193 19.268 23.8193C19.268 23.8193 19.1136 23.8193 18.8667 23.8193C18.5889 23.8478 18.2494 23.8763 17.8173 23.9048C17.3543 23.9618 16.8604 24.0188 16.3049 24.1327C16.0271 24.1897 15.7493 24.2467 15.4715 24.3322C15.1834 24.4082 14.8953 24.5031 14.6072 24.6171C14.0517 24.8165 13.4652 25.0445 12.9405 25.3579C12.4466 25.6428 11.9837 26.0132 11.5824 26.4121C11.3972 26.583 11.2429 26.8109 11.1194 27.0389C10.9959 27.2668 10.8931 27.4947 10.8108 27.7227C10.749 27.9696 10.7181 28.2165 10.7181 28.4635C10.7181 28.7294 10.7696 28.9953 10.8725 29.2612C11.5515 29.3467 12.1688 29.3182 12.7553 29.2042C13.3417 29.0903 13.8973 28.9193 14.3912 28.6629C14.6381 28.5489 14.8747 28.416 15.1011 28.264C15.204 28.188 15.3069 28.1026 15.4097 28.0076C15.5332 27.9316 15.6464 27.8556 15.7493 27.7797C16.1814 27.4662 16.5518 27.0959 16.8913 26.754C17.2617 26.3836 17.6012 26.0417 17.8481 25.6998C17.9305 25.6048 18.0025 25.5193 18.0642 25.4434C18.1259 25.3484 18.1877 25.2629 18.2494 25.1869C18.3934 25.035 18.5169 24.8925 18.6198 24.7596C18.805 24.4746 18.9902 24.2467 19.0828 24.0758Z" fill="white"/>
<path d="M11.9838 21.0269C12.5702 20.7705 13.0023 20.4286 13.3419 20.0297C13.6814 19.6308 13.9283 19.1749 14.0826 18.6621C14.453 17.6649 14.5148 16.4682 14.4839 15.3001C14.4839 15.0152 14.4736 14.7303 14.453 14.4453C14.4325 14.1604 14.4119 13.885 14.3913 13.6191C14.3604 13.0778 14.2987 12.5649 14.237 12.166C14.1444 11.3113 14.0209 10.7415 14.0209 10.7415C14.0209 10.7415 13.9283 10.8554 13.7431 11.0549C13.5579 11.2258 13.2801 11.5107 12.9715 11.8811C12.6937 12.223 12.3542 12.6219 12.0455 13.1062C11.706 13.5906 11.3973 14.1034 11.1195 14.6733C10.8417 15.2431 10.6257 15.8129 10.4713 16.4113C10.317 17.0096 10.2553 17.6079 10.2862 18.1492C10.3788 19.2889 10.8726 20.3146 11.9838 21.0269Z" fill="white"/>
<path d="M21.5828 20.4289C22.0149 20.144 22.4471 19.8591 22.7866 19.5742C23.157 19.2893 23.4965 19.0328 23.7743 18.8049C24.0521 18.5485 24.2681 18.349 24.4225 18.2351C24.5768 18.0926 24.6694 18.0072 24.6694 18.0072C24.6694 18.0072 24.083 17.8932 23.1878 17.8077C22.7557 17.7697 22.2516 17.7507 21.6754 17.7507C21.1198 17.7507 20.5025 17.7792 19.8852 17.8647C18.6506 18.0356 17.4159 18.406 16.49 19.0328C16.027 19.3463 15.6257 19.7166 15.3788 20.144C15.101 20.5714 14.9775 21.0842 15.0084 21.6256C16.3048 22.1384 17.4777 22.0814 18.5888 21.7965C19.1444 21.6541 19.6691 21.4546 20.163 21.2267C20.6569 20.9988 21.1507 20.7138 21.5828 20.4289Z" fill="white"/>
<path d="M19.1136 66.1006C22.7557 68.7218 27.1387 70.5452 31.4599 72.0838C35.0094 73.3374 39.5467 75.3888 44.1766 77.2977C40.0097 78.4374 35.9045 79.3776 32.6328 79.8619C32.2006 79.9189 34.3921 81.8848 34.8242 81.7994C38.6516 80.7737 42.5407 79.5485 46.368 78.181C50.5349 79.8619 54.6709 81.2865 58.0662 81.7994C58.4983 81.8564 59.8255 79.8619 59.3934 79.7765C56.1834 79.3206 52.4486 78.4659 48.5286 77.4117C54.9487 75.0184 61.1528 72.3402 66.4925 69.776C72.2953 67.0123 76.6474 63.052 79.5179 57.8095C82.1723 52.966 84.0243 47.5811 84.3021 42.1962C84.6725 34.7314 81.8328 27.4091 77.419 21.1125C76.1226 19.2605 74.672 17.4086 73.0669 15.7276C73.211 15.2338 73.2316 14.7684 73.1287 14.3315C73.0052 13.8187 72.7891 13.3343 72.4496 12.9069C71.7706 11.9952 70.6903 11.2544 69.5482 10.7131C68.4371 10.1718 67.2642 9.82987 66.3999 9.65892C65.9678 9.54496 65.5974 9.51646 65.3505 9.45948C65.227 9.45948 65.1344 9.44998 65.0727 9.43098C65.011 9.43098 64.9698 9.43098 64.9493 9.43098C64.9698 9.43098 64.9904 9.45948 65.011 9.51646C65.0315 9.57345 65.0727 9.64942 65.1344 9.74439C65.2579 9.94383 65.4122 10.2287 65.6283 10.5706C66.0295 11.2259 66.5851 12.1377 67.2642 12.9924C67.6037 13.4198 67.9741 13.8472 68.3445 14.246C68.5503 14.436 68.7663 14.6164 68.9927 14.7874C69.1984 14.9583 69.4145 15.1198 69.6408 15.2717C70.1038 15.5567 70.5977 15.7846 71.1533 15.8986C71.5854 15.984 72.0175 16.041 72.5114 16.0125C75.5979 19.2321 78.098 22.936 80.0426 26.6683C82.481 31.4549 83.7774 36.6404 83.6539 41.8543C83.4996 47.5811 81.339 53.3649 78.4067 58.4079C76.1535 62.3682 72.8509 65.5877 68.6531 67.981C64.8875 70.1179 60.7515 71.7134 56.6464 73.2804C53.5598 74.4486 49.8867 75.6737 46.1828 76.7279C38.2503 74.3916 29.9783 71.2575 24.2064 68.3799C21.2124 66.8983 18.4962 65.0749 16.243 62.767C13.9898 60.4592 12.354 57.7241 11.0576 54.9319C8.58833 49.6325 7.04504 44.1336 7.41543 38.3499C7.87842 31.6544 10.8724 25.2153 15.0393 19.6309C16.1196 18.2064 17.2925 16.7818 18.558 15.4427C19.0107 15.4617 19.4428 15.4237 19.8543 15.3287C20.4099 15.2148 20.9038 14.9868 21.3667 14.7019C21.5931 14.569 21.8092 14.4075 22.0149 14.2176C22.2413 14.0466 22.4471 13.8662 22.6323 13.6762C23.0335 13.2773 23.4039 12.85 23.7434 12.4226C24.3916 11.5678 24.978 10.6561 25.3793 10.0008C25.5954 9.65892 25.7497 9.374 25.8732 9.17456C25.9349 9.07959 25.976 9.00362 25.9966 8.94663C26.0172 8.90865 26.0275 8.88965 26.0275 8.88965C26.0275 8.88965 25.9966 8.88965 25.9349 8.88965C25.8732 8.88965 25.7806 8.89915 25.6571 8.91814C25.4102 8.94663 25.0398 9.00362 24.6077 9.08909C23.7434 9.26004 22.5705 9.60193 21.4285 10.1433C20.3173 10.6846 19.237 11.4254 18.558 12.3371C18.2184 12.7645 17.9715 13.2773 17.8789 13.7902C17.776 14.2081 17.7966 14.6544 17.9407 15.1293C14.9775 18.2064 12.5392 21.7678 10.6563 25.3292C8.31054 29.7169 6.89071 34.475 6.67465 39.3186C6.45859 44.9029 8.1562 50.2593 10.5637 55.3878C12.4774 59.4905 15.1936 63.2514 19.1136 66.1006Z" fill="white"/>
<path d="M65.5976 76.2437C67.0483 76.0158 68.3755 75.6169 69.3323 75.2465C70.2892 74.8761 70.9065 74.5627 70.9065 74.5627C70.9065 74.5627 70.2891 74.3633 69.3632 74.0783C68.4063 73.7934 67.1408 73.4515 65.8136 73.1666C64.4864 72.8817 63.1283 72.6823 61.8319 72.7392C61.2146 72.7392 60.5973 72.8532 60.0109 73.0242C59.4244 73.2236 58.8688 73.5085 58.2823 73.9074C58.6836 75.0471 59.8256 75.7878 61.1837 76.1297C62.5727 76.5001 64.1469 76.4716 65.5976 76.2437Z" fill="white"/>
<path d="M58.4675 72.0551C59.054 71.9411 59.5787 71.7132 60.0725 71.3998C61.0602 70.7445 61.801 69.7473 62.3258 68.7216C62.8505 67.7244 63.1283 66.6702 63.2826 65.8724C63.3443 65.5021 63.4061 65.1602 63.4369 64.9322C63.4369 64.7043 63.4678 64.5903 63.4678 64.5903C63.4678 64.5903 63.0048 64.7898 62.3258 65.1602C61.6467 65.5306 60.7516 66.0719 59.8874 66.6702C59.0231 67.297 58.1589 68.0378 57.5724 68.8641C56.986 69.7188 56.6156 70.6875 56.6464 71.9126C57.2329 72.1406 57.8811 72.1406 58.4675 72.0551Z" fill="white"/>
<path d="M75.3509 67.6108C73.9928 67.6393 72.5729 67.7247 71.4 68.0382C70.1963 68.3801 69.2086 68.9214 68.5295 69.9756C69.3629 70.9443 70.5358 71.4001 71.863 71.4571C73.1903 71.5141 74.6718 71.1722 75.999 70.6309C77.3571 70.0895 78.5609 69.3488 79.4251 68.722C79.8573 68.437 80.1968 68.1521 80.4437 67.9527C80.6906 67.7532 80.8141 67.6108 80.8141 67.6108C80.8141 67.6108 80.1659 67.6108 79.1165 67.6108C78.0979 67.5823 76.7398 67.5538 75.3509 67.6108Z" fill="white"/>
<path d="M66.2147 68.1805C67.5419 68.2375 68.5913 67.6677 69.3321 66.8414C70.1037 65.9867 70.5359 64.8755 70.7211 63.7928C70.9063 62.6817 70.8445 61.656 70.6902 60.8867C70.6285 60.5068 70.5564 60.2029 70.4741 59.975C70.4124 59.747 70.3815 59.6331 70.3815 59.6331C70.3815 59.6331 70.2889 59.7185 70.1655 59.8325C70.0111 59.975 69.826 60.1744 69.579 60.4023C69.0852 60.8867 68.437 61.542 67.7888 62.3397C67.1406 63.109 66.4924 64.0208 66.1529 64.9895C65.7825 65.9867 65.6899 67.0408 66.2147 68.1805Z" fill="white"/>
<path d="M84.2094 62.1974C84.3535 62.0455 84.4872 61.8935 84.6107 61.7416L84.7959 61.5136L84.9502 61.3427C85.156 61.1148 85.3412 60.8773 85.5058 60.6304C85.8454 60.1745 86.154 59.7472 86.4009 59.3483C86.6479 58.9779 86.833 58.6645 86.9565 58.4366C87.08 58.2086 87.1417 58.0662 87.1417 58.0662C87.1417 58.0662 86.5244 58.2086 85.5675 58.465C84.6416 58.75 83.407 59.1204 82.2341 59.6047C81.9254 59.7377 81.627 59.8706 81.3389 60.0036C81.0097 60.1556 80.7011 60.317 80.413 60.4879C80.1043 60.6589 79.8265 60.8013 79.5487 60.9723C79.2709 61.1432 78.9931 61.2857 78.7462 61.4567C77.7585 62.1689 76.9869 62.9382 76.6782 64.1064C77.7894 64.8471 79.0857 64.9611 80.413 64.5907C81.7711 64.2203 83.1291 63.3371 84.2094 62.1974Z" fill="white"/>
<path d="M76.2153 57.3252C75.8757 56.2425 75.3819 55.2453 74.9497 54.5615C74.744 54.2006 74.5691 53.9252 74.425 53.7353C74.2707 53.5359 74.1781 53.4219 74.1781 53.4219C74.1781 53.4219 74.1164 53.5359 74.0547 53.7353C73.9621 53.9062 73.8077 54.1912 73.6842 54.533C73.5299 54.8749 73.3756 55.2738 73.2521 55.7012C73.0978 56.1571 72.9435 56.6984 72.9126 57.0118C72.7891 57.8096 72.6348 58.7213 72.6966 59.69C72.7891 60.6587 73.0669 61.6844 73.9312 62.6246C75.1967 62.3682 76.0301 61.5419 76.3696 60.5447C76.4622 60.2883 76.5239 60.0319 76.5548 59.7755C76.5856 59.4906 76.5856 59.2341 76.5856 58.9492C76.5445 58.6833 76.493 58.4174 76.4313 58.1515C76.3696 57.8666 76.2976 57.5911 76.2153 57.3252Z" fill="white"/>
<path d="M90.1664 48.8632C90.2282 48.6068 90.2591 48.4644 90.2591 48.4644C90.2591 48.4644 89.7035 48.7208 88.8083 49.1481C87.9441 49.547 86.8021 50.1453 85.7526 50.8006C84.6415 51.4844 83.5303 52.2252 82.8204 53.1085C82.666 53.3079 82.4809 53.5358 82.3265 53.7638C82.1825 53.9917 82.0693 54.2291 81.987 54.4761C81.8018 54.9604 81.7401 55.5017 81.8635 56.0716C83.1908 56.4135 84.3946 56.1571 85.5057 55.5302C85.7732 55.3783 86.0407 55.2073 86.3082 55.0174C86.5552 54.818 86.8021 54.6185 87.0182 54.3906C87.4811 53.9347 87.8824 53.4219 88.2528 52.8805C88.9936 51.8548 89.4566 50.7152 89.7961 49.8889C89.9504 49.4616 90.0739 49.0912 90.1664 48.8632Z" fill="white"/>
<path d="M78.7156 55.1314C79.2403 54.7895 79.6107 54.3906 79.8576 53.9348C80.0017 53.7068 80.1046 53.4694 80.1663 53.2225C80.228 52.9661 80.2898 52.7097 80.2898 52.4532C80.2898 51.3706 79.9502 50.2594 79.3947 49.2622C78.8391 48.265 78.1291 47.3817 77.5736 46.7834C77.2855 46.4795 77.0489 46.2421 76.8637 46.0711C76.6785 45.9287 76.5859 45.8147 76.5859 45.8147C76.5859 45.8147 76.555 45.9287 76.4933 46.1281C76.4624 46.3276 76.4007 46.6125 76.3081 46.9544C76.1846 47.6382 76.1229 48.5784 76.0303 49.5756C76.0303 50.0599 76.0303 50.5728 76.1229 51.1141C76.1435 51.2281 76.164 51.3516 76.1846 51.4845C76.2052 51.6175 76.2258 51.7504 76.2464 51.8834C76.2875 52.1303 76.3595 52.3772 76.4624 52.6242C76.8328 53.6214 77.5119 54.5046 78.7156 55.1314Z" fill="white"/>
<path d="M87.2036 41.5125C86.9772 41.7404 86.7612 41.9684 86.5554 42.1963C86.3496 42.4242 86.1438 42.6522 85.9381 42.8801C85.5368 43.336 85.1664 43.8203 84.9195 44.3047C84.796 44.5326 84.7034 44.789 84.6108 45.0455C84.5079 45.2924 84.4462 45.5393 84.4256 45.7862C84.3639 46.2991 84.4256 46.8404 84.6417 47.3817C86.0307 47.4957 87.1727 47.0398 88.0987 46.2421C88.3456 46.0331 88.5719 45.8052 88.7777 45.5583C88.9938 45.3304 89.1481 45.0739 89.3333 44.8175C89.6728 44.2762 89.9506 43.6778 90.1975 43.108C90.321 42.7946 90.4136 42.5097 90.4753 42.1963C90.5576 41.9114 90.6296 41.6265 90.6914 41.3416C90.8148 40.7717 90.9074 40.2589 90.9692 39.803C91 38.8913 91 38.293 91 38.293C91 38.293 90.5062 38.6633 89.7963 39.2617C89.0864 39.86 88.0987 40.6578 87.2036 41.5125Z" fill="white"/>
<path d="M82.2648 45.3875C82.3472 45.1406 82.3883 44.8937 82.3883 44.6467C82.4192 44.3903 82.3574 44.1339 82.3266 43.8775C82.2031 43.3646 81.987 42.8518 81.7092 42.3389C81.6475 42.225 81.5755 42.111 81.4932 41.997C81.4109 41.8641 81.3286 41.7406 81.2463 41.6267C81.0611 41.3987 80.8759 41.1803 80.6907 40.9713C80.2894 40.544 79.8573 40.1451 79.4561 39.8032C79.2503 39.6512 79.0445 39.4993 78.8388 39.3473C78.633 39.2144 78.4478 39.0909 78.2832 38.9769C77.5424 38.4926 77.0485 38.2646 77.0485 38.2646C77.0485 38.2646 77.0176 38.692 77.1102 39.3473C77.1411 39.5183 77.1411 39.7177 77.172 39.8887C77.172 40.0786 77.1926 40.2876 77.2337 40.5155C77.2646 40.9429 77.3881 41.3987 77.4807 41.8546C77.5732 42.3389 77.7276 42.8233 77.9128 43.3076C78.0157 43.5546 78.1288 43.792 78.2523 44.0199C78.3552 44.2479 78.4786 44.4758 78.6227 44.7037C79.2091 45.587 80.0734 46.3277 81.3697 46.7266C81.8327 46.3277 82.1105 45.8719 82.2648 45.3875Z" fill="white"/>
<path d="M84.7034 35.3582C84.5799 35.8996 84.549 36.4124 84.6416 36.9253C84.6725 37.1532 84.7651 37.4096 84.8577 37.666C84.9606 37.913 85.0943 38.1599 85.2589 38.4068C86.617 38.2358 87.6665 37.5521 88.3146 36.5549C88.6542 36.0705 88.9319 35.5007 89.1171 34.9023C89.3023 34.304 89.3949 33.6772 89.4567 33.0504C89.4875 32.737 89.5184 32.4236 89.5184 32.1102C89.4978 31.8253 89.4772 31.5309 89.4567 31.227C89.4258 30.6571 89.3332 30.1443 89.2715 29.6884C89.0554 28.8052 88.8702 28.2354 88.8702 28.2354C88.8702 28.2354 88.4998 28.6912 87.9751 29.432C87.7282 29.8024 87.4195 30.2297 87.1109 30.6856C86.7713 31.17 86.4318 31.6543 86.154 32.1957C85.8454 32.7085 85.5367 33.2498 85.2589 33.7627C85.012 34.3135 84.8268 34.8454 84.7034 35.3582Z" fill="white"/>
<path d="M82.1109 35.2158C81.8639 34.7315 81.4935 34.3041 81.0923 33.8767C80.8865 33.6868 80.6704 33.4969 80.4441 33.3069C80.1972 33.1075 79.9502 32.9365 79.7033 32.7941C78.6847 32.1388 77.6353 31.6829 76.8019 31.4265C75.9685 31.1415 75.413 31.0276 75.413 31.0276C75.413 31.0276 75.5056 31.455 75.7834 32.0533C75.9068 32.3667 76.0303 32.7371 76.2155 33.1075C76.3184 33.3164 76.4213 33.5253 76.5242 33.7343C76.6476 33.9337 76.7402 34.1332 76.8637 34.3611C77.0797 34.76 77.3575 35.2158 77.697 35.6147C77.9748 36.0421 78.3452 36.441 78.7465 36.7829C79.5799 37.4952 80.5676 38.0365 81.9565 38.1505C82.1211 37.9225 82.2549 37.6851 82.3578 37.4382C82.4504 37.1817 82.4504 36.9253 82.4504 36.6689C82.4504 36.1845 82.3269 35.7002 82.1109 35.2158Z" fill="white"/>
<path d="M83.9934 19.0615C83.9934 19.0615 83.7464 19.6029 83.4378 20.4291C83.1291 21.2554 82.7588 22.3096 82.4192 23.4777C82.2649 24.0475 82.1414 24.6174 82.0488 25.1872C81.9562 25.757 81.8945 26.2984 81.9562 26.8397C81.9871 27.0961 81.9871 27.3525 82.0488 27.609C82.1106 27.8559 82.2032 28.1028 82.3266 28.3497C82.4295 28.5777 82.5736 28.7961 82.7588 29.005C82.9234 29.214 83.1291 29.4134 83.3761 29.6034C83.9934 29.3754 84.5181 29.0335 84.9194 28.6347C85.3515 28.2073 85.5984 27.7229 85.7836 27.1531C85.8865 26.8872 85.9585 26.6023 85.9997 26.2984C86.0614 26.0134 86.0923 25.7 86.0923 25.3866C86.0923 24.7883 85.9996 24.1615 85.907 23.5347C85.6293 22.338 85.1663 21.1984 84.7342 20.4006C84.549 19.9732 84.3329 19.6598 84.2094 19.4319C84.086 19.204 83.9934 19.0615 83.9934 19.0615Z" fill="white"/>
<path d="M79.8883 27.6087C79.7648 27.3808 79.6105 27.1528 79.4253 26.9534C79.024 26.583 78.5611 26.2126 78.0672 25.9277C77.5425 25.6143 76.9561 25.3579 76.4005 25.1584C76.1124 25.0635 75.8243 24.978 75.5362 24.902C75.2584 24.8165 74.9806 24.7596 74.7029 24.7026C74.1473 24.5886 73.6225 24.5316 73.1904 24.4746C72.7583 24.4367 72.4085 24.4082 72.141 24.3892C71.8941 24.3892 71.7397 24.3892 71.7397 24.3892C71.7397 24.3892 71.8015 24.4746 71.9249 24.6456C72.0175 24.8165 72.1719 25.0445 72.3879 25.3294C72.4908 25.4623 72.604 25.6048 72.7274 25.7568C72.8097 25.8327 72.8817 25.9182 72.9435 26.0132C73.0052 26.0892 73.067 26.1651 73.1287 26.2411C73.4065 26.583 73.746 26.9534 74.1164 27.2953C74.4559 27.6657 74.8263 28.0361 75.2584 28.3495C75.3613 28.4255 75.4745 28.5014 75.598 28.5774C75.7009 28.6534 75.8037 28.7294 75.9066 28.8053C76.133 28.9573 76.3696 29.0998 76.6165 29.2327C77.1104 29.4891 77.666 29.6601 78.2524 29.774C78.808 29.888 79.4562 29.9165 80.1352 29.831C80.2175 29.5651 80.269 29.2992 80.2896 29.0333C80.2896 28.7864 80.2587 28.5394 80.1969 28.2925C80.1146 28.0456 80.0117 27.8176 79.8883 27.6087Z" fill="white"/>
<path d="M79.0241 21.597C80.1352 20.8847 80.6291 19.859 80.7217 18.7193C80.7525 18.1495 80.6908 17.5796 80.5365 16.9813C80.3822 16.383 80.1661 15.8132 79.8883 15.2433C79.6105 14.6735 79.3018 14.1607 78.9623 13.6763C78.6536 13.192 78.3141 12.7931 78.0055 12.4227C77.7277 12.0808 77.4499 11.7959 77.2647 11.6249C77.0795 11.4255 76.956 11.3115 76.956 11.3115C76.956 11.3115 76.8634 11.8814 76.7708 12.7076C76.7091 13.135 76.6474 13.6478 76.6165 14.1892C76.5754 14.4551 76.5548 14.721 76.5548 14.9869C76.5239 15.2718 76.5239 15.5852 76.493 15.8702C76.493 17.0098 76.5548 18.2065 76.8943 19.2322C77.0795 19.745 77.3264 20.2009 77.666 20.5998C78.0055 20.9986 78.4376 21.3405 79.0241 21.597Z" fill="white"/>
<path d="M74.5177 19.5739C73.5608 18.9756 72.3262 18.6052 71.1225 18.4343C70.5051 18.3488 69.8878 18.3203 69.3322 18.3203C68.7766 18.3203 68.2519 18.3488 67.8198 18.3773C66.9247 18.4628 66.3383 18.5767 66.3383 18.5767C66.3383 18.5767 66.4308 18.6337 66.5852 18.7762C66.7395 18.9186 66.9555 19.1181 67.2333 19.346C67.5111 19.6024 67.8507 19.8589 68.1902 20.1438C68.5606 20.4287 68.9927 20.7136 69.4248 20.9985C69.857 21.2834 70.3508 21.5398 70.8447 21.7963C71.3385 22.0242 71.8632 22.2236 72.4188 22.3661C73.53 22.651 74.7029 22.6795 75.9992 22.1952C76.0301 21.6538 75.8758 21.141 75.6288 20.7136C75.3511 20.2862 74.9807 19.8873 74.5177 19.5739Z" fill="white"/>
<path d="M45.4652 0.256836L47.3172 3.73279L51.4841 4.30262L48.4592 7.00931L49.1691 10.8272L45.4652 9.03221L41.7305 10.8272L42.4404 7.00931L39.4464 4.30262L43.6133 3.73279L45.4652 0.256836Z" fill="white"/>
<path d="M35.9277 11.5679L34.2918 9.31712L35.403 6.78138L32.5633 7.52216L30.3101 5.78418L30.1866 8.49087L27.6865 9.94394L30.4644 10.8842L31.1744 13.5339L32.9954 11.397L35.9277 11.5679Z" fill="white"/>
<path d="M55.0028 11.5679L56.6387 9.31712L55.5275 6.78138L58.3672 7.52216L60.6204 5.78418L60.7439 8.49087L63.244 9.94394L60.4661 10.8842L59.7561 13.5339L57.935 11.397L55.0028 11.5679Z" fill="white"/>
<path d="M22.0691 79.7193C21.4517 79.5294 20.6904 80.0802 19.785 81.3719C18.8796 82.6635 18.6635 83.5087 19.1368 83.9076L18.8282 84.335L18.7356 84.3065C18.4475 84.1355 18.2314 83.9076 18.0874 83.6227C17.9227 83.3378 17.8404 83.0338 17.8404 82.7109C17.7993 82.0082 18.0256 81.3054 18.5195 80.6026C19.0133 79.8998 19.6204 79.4154 20.3406 79.1495C20.8139 78.9976 21.2665 78.9596 21.6987 79.0355C21.9456 79.0735 22.1719 79.1495 22.3777 79.2635L22.0691 79.7193ZM19.4455 84.107C19.6307 84.202 19.8056 84.202 19.9702 84.107C20.1348 84.0311 20.2788 83.9076 20.4023 83.7366C20.5258 83.5467 20.6286 83.3947 20.711 83.2808C20.7933 83.1668 20.8447 83.0529 20.8653 82.9389C20.927 82.673 20.8344 82.464 20.5875 82.3121L20.7727 82.0556L22.8407 83.2808C22.8201 83.3188 22.7893 83.3473 22.7481 83.3663C22.7275 83.4042 22.707 83.4327 22.6864 83.4517C22.6452 83.4897 22.6144 83.5182 22.5938 83.5372C22.4292 83.5182 22.2954 83.5372 22.1925 83.5942C22.0896 83.6512 21.997 83.7461 21.9147 83.8791L21.6061 84.3065C21.1328 84.9903 20.5258 85.1707 19.785 84.8478C19.5792 84.7718 19.3529 84.6674 19.106 84.5344L19.4455 84.107ZM22.7172 79.4914C22.9847 79.7003 23.1905 79.9758 23.3345 80.3177C23.3757 80.3746 23.4066 80.4126 23.4272 80.4316C23.4889 80.4696 23.6123 80.4221 23.7975 80.2892L24.1062 80.4601L22.8407 82.2551L22.5938 82.1126C22.5938 82.0177 22.6246 81.8562 22.6864 81.6283C22.7481 81.3813 22.7893 81.1914 22.8098 81.0584C22.851 80.9255 22.8613 80.7925 22.8407 80.6596C22.8201 80.3367 22.6761 80.0897 22.4086 79.9188L22.7172 79.4914Z" fill="white"/>
<path d="M24.631 87.3268C23.5198 86.8329 22.9745 86.2726 22.9951 85.6458C22.9951 85.4369 23.0568 85.2184 23.1803 84.9905L24.847 81.7425C24.9293 81.5905 24.919 81.4575 24.8162 81.3436C24.775 81.3056 24.7338 81.2676 24.6927 81.2296C24.631 81.1726 24.5795 81.1156 24.5384 81.0587L24.6927 80.8022L27.0076 81.8279L26.8841 82.0844C26.8018 82.0844 26.7195 82.0749 26.6372 82.0559C26.5755 82.0369 26.5138 82.0274 26.452 82.0274C26.308 82.0274 26.1948 82.1034 26.1125 82.2553L24.5075 85.3894C24.2606 85.8642 24.2503 86.2536 24.4766 86.5575C24.5795 86.6715 24.703 86.7664 24.847 86.8424L24.631 87.3268ZM25.2174 87.0134C25.5878 87.1463 25.8965 87.1463 26.1434 87.0134C26.3697 86.8994 26.5858 86.6335 26.7916 86.2156L28.304 83.281C28.3863 83.11 28.3863 82.9676 28.304 82.8536C28.2628 82.8156 28.2114 82.7681 28.1497 82.7112C28.0879 82.6732 28.0262 82.6257 27.9645 82.5687L28.1188 82.3123L29.7238 83.0246L29.6004 83.281C29.518 83.281 29.446 83.2715 29.3843 83.2525C29.3226 83.2525 29.2505 83.243 29.1682 83.224C29.0242 83.243 28.911 83.3285 28.8287 83.4804L27.3163 86.4151C27.0488 86.9279 26.7401 87.2698 26.3903 87.4408C26.0199 87.6307 25.5466 87.6402 24.9705 87.4692L25.2174 87.0134Z" fill="white"/>
<path d="M30.7115 85.5601L28.9522 87.8109C28.8699 87.9059 28.8081 87.9914 28.767 88.0674C28.7464 88.1433 28.7464 88.2098 28.767 88.2668C28.8081 88.3238 28.8596 88.3808 28.9213 88.4377C28.9625 88.4757 29.0242 88.5137 29.1065 88.5517C29.1682 88.5897 29.23 88.6372 29.2917 88.6942L29.1682 88.9506L27.3163 88.4092L27.4089 88.1243C27.4912 88.1053 27.5632 88.0958 27.6249 88.0958C27.6867 88.0958 27.7587 88.0863 27.841 88.0674C28.0056 88.0294 28.16 87.9249 28.304 87.7539L30.6807 84.7908L30.7115 85.5601ZM30.7733 87.6115L29.8164 87.2981L30.0942 86.9277L30.7733 87.1271V87.6115ZM31.0819 84.3635L30.588 84.0216C30.6498 83.9076 30.6909 83.8126 30.7115 83.7366C30.7527 83.6417 30.7938 83.5657 30.835 83.5087C31.1025 83.4707 31.5037 83.4992 32.0387 83.5942C32.1211 83.6132 32.1931 83.6322 32.2548 83.6512C32.296 83.7461 32.3165 83.8316 32.3165 83.9076L32.5017 89.0076C32.5017 89.2165 32.5429 89.3875 32.6252 89.5204C32.6869 89.6534 32.7898 89.7483 32.9339 89.8053L32.8413 90.0902L30.372 89.3495L30.4646 89.093C30.5263 89.074 30.5984 89.0646 30.6807 89.0646C30.763 89.0646 30.835 89.0646 30.8967 89.0646C31.0202 89.0646 31.1025 89.0171 31.1436 88.9221C31.1642 88.8841 31.1745 88.7891 31.1745 88.6372L31.0819 84.3635Z" fill="white"/>
<path d="M36.5143 84.8194L35.4649 89.777C35.4443 89.9289 35.4855 90.0524 35.5883 90.1474C35.6295 90.1853 35.6809 90.2138 35.7427 90.2328C35.825 90.2518 35.897 90.2898 35.9587 90.3468L35.897 90.6317L33.4277 90.1758L33.4895 89.8909C33.5718 89.8719 33.6438 89.8624 33.7055 89.8624C33.7878 89.8624 33.8496 89.8529 33.8907 89.8339C34.0348 89.7959 34.1274 89.6915 34.1685 89.5205L35.0328 85.3323C35.0739 85.1803 35.0431 85.0569 34.9402 84.9619C34.899 84.9239 34.8476 84.8954 34.7858 84.8764C34.7035 84.8574 34.6315 84.8194 34.5698 84.7625L34.6315 84.4775L36.5143 84.8194ZM38.6749 90.6032C38.3663 90.9641 37.9547 91.0971 37.4403 91.0021C36.9876 90.9261 36.7098 90.6507 36.6069 90.1758C36.5658 89.9479 36.5349 89.7105 36.5143 89.4635C36.5143 89.1976 36.504 88.9887 36.4835 88.8367C36.4423 88.4948 36.3497 88.2384 36.2057 88.0675L36.3291 87.4976C36.6378 87.5166 36.8847 87.4692 37.0699 87.3552C37.2551 87.2032 37.3889 86.9468 37.4712 86.5859C37.5535 86.168 37.5432 85.8546 37.4403 85.6457C37.3374 85.4748 37.1213 85.3513 36.7921 85.2753L36.8847 84.8764L37.3477 84.9619C37.965 85.0759 38.4074 85.3038 38.6749 85.6457C38.9218 85.9686 39.0041 86.339 38.9218 86.7569C38.7778 87.4027 38.356 87.7731 37.6563 87.868C37.43 87.887 37.1728 87.887 36.8847 87.868V87.8965C37.1316 87.9725 37.2962 88.058 37.3786 88.1529C37.6049 88.3809 37.7489 88.6753 37.8107 89.0362C37.8313 89.1691 37.8518 89.3021 37.8724 89.4351C37.893 89.568 37.9136 89.6915 37.9341 89.8055C37.9547 89.9194 37.9753 90.0334 37.9959 90.1474C38.0576 90.3563 38.1399 90.4703 38.2428 90.4893C38.3045 90.5082 38.3663 90.4892 38.428 90.4323C38.4897 90.3753 38.5412 90.3373 38.5823 90.3183C38.6029 90.2803 38.6338 90.2708 38.6749 90.2898C38.7161 90.2898 38.7367 90.2898 38.7367 90.2898L38.6749 90.6032Z" fill="white"/>
<path fill-rule="evenodd" clip-rule="evenodd" d="M41.6072 87.6686L40.4651 90.2613C40.424 90.3753 40.3931 90.4703 40.3725 90.5463C40.3725 90.6412 40.3931 90.7077 40.4343 90.7457C40.4754 90.8027 40.5372 90.8407 40.6195 90.8597C40.6812 90.8977 40.7532 90.9261 40.8355 90.9451C40.8973 90.9641 40.959 91.0021 41.0207 91.0591V91.3155L39.0762 91.2016V90.9167C39.1379 90.8787 39.1996 90.8502 39.2614 90.8312C39.3437 90.8122 39.4157 90.7932 39.4774 90.7742C39.6421 90.6982 39.7655 90.5558 39.8478 90.3468L41.3911 86.9278L41.6072 87.6686ZM41.638 86.415L41.0516 86.1871C41.0927 86.0731 41.1133 85.9686 41.1133 85.8737C41.1339 85.7977 41.1545 85.7217 41.1751 85.6457C41.422 85.5508 41.8232 85.4843 42.3788 85.4463C42.4611 85.4463 42.5331 85.4463 42.5949 85.4463C42.6566 85.5413 42.6978 85.6267 42.7183 85.7027L44.2308 90.6032C44.2925 90.8122 44.3748 90.9736 44.4777 91.0876C44.5806 91.1826 44.7143 91.2491 44.879 91.287L44.8481 91.572L42.2554 91.401V91.1446C42.3377 91.1066 42.4097 91.0781 42.4714 91.0591C42.5537 91.0591 42.6257 91.0496 42.6875 91.0306C42.8109 90.9926 42.883 90.9261 42.9035 90.8312C42.9035 90.7742 42.883 90.6792 42.8418 90.5463L41.638 86.415ZM42.1936 89.663L41.1751 89.5776L41.3602 89.1502L42.0702 89.2072L42.1936 89.663Z" fill="white"/>
<path d="M45.8975 86.3865C45.774 86.3675 45.6608 86.3485 45.558 86.3295C45.3316 86.3105 45.1876 86.2915 45.1258 86.2725L45.095 85.7597L46.9778 85.6742L50.2496 90.0904L50.3422 91.3725L49.6322 91.401L45.8975 86.3865ZM46.3296 87.5831L46.4839 90.6602C46.4839 90.9071 46.6383 91.0686 46.9469 91.1446C47.0292 91.1636 47.1012 91.1826 47.163 91.2016L47.1939 91.4865L45.3419 91.5719L45.311 91.287C45.3728 91.249 45.4448 91.2205 45.5271 91.2016C45.6094 91.1636 45.6814 91.1256 45.7432 91.0876C45.8872 90.9926 45.9489 90.8502 45.9284 90.6602L45.7432 86.7854L46.3296 87.5831ZM49.6322 88.6658L49.5088 86.358C49.5088 86.187 49.4368 86.0731 49.2927 86.0161C49.231 85.9971 49.159 85.9781 49.0767 85.9591C49.0149 85.9401 48.9429 85.9211 48.8606 85.9021L48.8297 85.5887L50.6508 85.5317V85.8167C50.5891 85.8546 50.5171 85.8831 50.4348 85.9021C50.373 85.9211 50.3113 85.9496 50.2496 85.9876C50.1055 86.0446 50.0438 86.1585 50.0644 86.3295L50.2187 89.4351L49.6322 88.6658Z" fill="white"/>
<path d="M50.5581 85.4465C50.9079 85.4275 51.1034 85.418 51.1446 85.418L52.0088 85.2756L52.0705 85.7029C51.659 85.7979 51.4326 86.0448 51.3915 86.4437C51.3709 86.5577 51.3606 86.6717 51.3606 86.7856C51.3195 87.0705 51.2577 87.2605 51.1754 87.3555L50.9285 87.3839L50.5581 85.4465ZM54.5398 89.7772C54.6015 90.0811 54.7044 90.2616 54.8485 90.3186C54.9102 90.3376 54.9822 90.3471 55.0645 90.3471C55.1468 90.3471 55.2394 90.3565 55.3423 90.3755L55.3732 90.6889L52.7187 91.0878L52.657 90.8029C52.7393 90.7459 52.8216 90.7079 52.9039 90.6889C52.9656 90.651 53.0274 90.613 53.0891 90.575C53.2126 90.48 53.264 90.347 53.2434 90.1761L52.3483 85.2471L53.6756 85.0476L54.5398 89.7772ZM54.8793 84.8197C54.9205 84.8197 55.116 84.7722 55.4658 84.6772L55.8053 86.6432L55.5584 86.6717C55.4349 86.5957 55.332 86.4722 55.2497 86.3013C55.1468 86.1303 55.0748 85.9879 55.0336 85.8739C54.9719 85.7789 54.8999 85.6934 54.8176 85.6175C54.653 85.4465 54.4163 85.361 54.1077 85.361L54.0459 84.9622L54.8793 84.8197Z" fill="white"/>
<path d="M57.472 84.2213L59.2314 89.8056L57.3795 90.3185L57.2869 90.0336C57.3486 89.9766 57.4103 89.9291 57.472 89.8911C57.5338 89.8721 57.5852 89.8436 57.6264 89.8056C57.7293 89.7107 57.7499 89.5777 57.6881 89.4068L56.4226 85.3325C56.3609 85.1615 56.258 85.0666 56.114 85.0476C56.0522 85.0286 55.9905 85.0191 55.9288 85.0191C55.867 85.0191 55.795 85.0191 55.7127 85.0191L55.6201 84.7057L57.472 84.2213ZM59.2314 84.4777C59.108 84.4208 58.9742 84.3828 58.8301 84.3638C58.6655 84.3448 58.5009 84.3638 58.3363 84.4207C58.1511 84.4587 58.0173 84.4967 57.935 84.5347L57.8116 84.1358L58.7067 83.9079C59.2828 83.737 59.6944 83.604 59.9413 83.509L60.5586 85.4179L60.2809 85.4749C60.1986 85.4369 60.1162 85.3705 60.0339 85.2755C59.9722 85.1995 59.9002 85.1141 59.8179 85.0191C59.7356 84.9241 59.643 84.8291 59.5401 84.7342C59.4578 84.6392 59.3549 84.5537 59.2314 84.4777ZM58.5215 86.4152L59.8179 86.0448L60.1574 87.0705L58.8301 87.4124L58.5215 86.4152ZM59.4475 89.3498C59.5915 89.3308 59.7664 89.2928 59.9722 89.2358C60.1574 89.1788 60.322 89.1029 60.466 89.0079C60.6101 88.8939 60.713 88.7705 60.7747 88.6375C60.857 88.5235 60.9085 88.4001 60.929 88.2671C60.9496 88.1151 60.9599 87.9822 60.9599 87.8682C60.9599 87.7353 60.9702 87.6118 60.9908 87.4978C60.9908 87.3839 61.0216 87.2889 61.0834 87.2129L61.3612 87.1559L61.9785 89.0934L59.5709 89.7487L59.4475 89.3498Z" fill="white"/>
<path d="M62.3489 82.6539L64.8491 88.0103L63.0589 88.7226L62.9354 88.4377C62.9971 88.3807 63.0486 88.3332 63.0897 88.2953C63.1515 88.2573 63.2029 88.2193 63.244 88.1813C63.3264 88.0863 63.3366 87.9534 63.2749 87.7824L61.4538 83.8791C61.3715 83.7271 61.2583 83.6416 61.1143 83.6226C61.0731 83.6226 61.0114 83.6226 60.9291 83.6226C60.8674 83.6416 60.7953 83.6511 60.713 83.6511L60.5896 83.3662L62.3489 82.6539ZM64.1392 82.7109C64.0157 82.6539 63.8717 82.6254 63.707 82.6254C63.5424 82.6254 63.3778 82.6634 63.2132 82.7394C63.028 82.8154 62.9045 82.8629 62.8428 82.8819L62.6576 82.5115L63.5218 82.1981C64.0774 81.9701 64.4787 81.7897 64.7256 81.6567L65.559 83.4802L65.2812 83.5657C65.1989 83.5277 65.1165 83.4707 65.0342 83.3947C64.9519 83.3187 64.8594 83.2428 64.7565 83.1668C64.6742 83.0718 64.5816 82.9863 64.4787 82.9104C64.3758 82.8344 64.2626 82.7679 64.1392 82.7109ZM63.6762 84.6768L64.9108 84.1925L65.3738 85.1612L64.1083 85.6455L63.6762 84.6768ZM65.0034 87.4975C65.1268 87.4595 65.2812 87.4025 65.4664 87.3265C65.6721 87.2506 65.8368 87.1556 65.9602 87.0416C66.0837 86.9087 66.1763 86.7757 66.238 86.6427C66.2792 86.5098 66.2998 86.3768 66.2998 86.2439C66.2998 86.1109 66.2998 85.9779 66.2998 85.845C66.2792 85.712 66.2689 85.5981 66.2689 85.5031C66.2689 85.3891 66.2895 85.2846 66.3306 85.1897L66.5775 85.1042L67.4418 86.9561L65.1577 87.8679L65.0034 87.4975Z" fill="white"/>
<path d="M70.158 85.6171L68.4913 86.5289L68.3061 86.2724C68.3678 86.2154 68.4193 86.1585 68.4604 86.1015C68.5221 86.0635 68.5633 86.016 68.5838 85.959C68.6662 85.8641 68.6559 85.7406 68.553 85.5886L66.1763 81.9417C66.094 81.7898 65.9809 81.7138 65.8368 81.7138C65.7751 81.7138 65.7133 81.7233 65.6516 81.7423C65.5693 81.7613 65.4973 81.7803 65.4356 81.7993L65.2504 81.5144L66.9171 80.6026L70.158 85.6171ZM68.3678 80.4602C68.162 80.4602 67.9665 80.5077 67.7813 80.6026C67.6167 80.6976 67.5036 80.7641 67.4418 80.8021L67.2258 80.4602L67.5653 80.2607C68.3884 79.8049 69.1909 79.7099 69.9728 79.9758C70.6724 80.2227 71.2383 80.6976 71.6704 81.4004C72.1437 82.1032 72.3186 82.7965 72.1952 83.4803C72.0717 84.221 71.619 84.8099 70.8371 85.2467L70.4667 85.4462L70.2506 85.1043C70.3123 85.0663 70.4255 85.0093 70.5901 84.9333C70.7547 84.8384 70.8885 84.7149 70.9914 84.5629C71.1149 84.392 71.1766 84.1926 71.1766 83.9646C71.1766 83.5278 70.9091 82.9104 70.3741 82.1127C69.9008 81.3529 69.4481 80.859 69.016 80.6311C68.8102 80.5171 68.5942 80.4602 68.3678 80.4602Z" fill="white"/>
<path fill-rule="evenodd" clip-rule="evenodd" d="M37.1007 35.4719C37.1007 35.8138 37.0184 36.0987 36.8538 36.3266C36.6686 36.5736 36.4319 36.7825 36.1439 36.9535C35.8558 37.1054 35.5163 37.2289 35.1253 37.3238C34.7549 37.3998 34.3536 37.4378 33.9215 37.4378H29.3225V29.7451H34.5697C34.8784 29.7451 35.1664 29.8116 35.4339 29.9446C35.7015 30.0585 35.9278 30.201 36.113 30.3719C36.2982 30.5619 36.4422 30.7708 36.5451 30.9987C36.648 31.2457 36.6994 31.4926 36.6994 31.7395C36.6994 32.1004 36.5863 32.4423 36.3599 32.7652C36.1336 33.0881 35.794 33.335 35.3413 33.506C35.8763 33.6389 36.3085 33.8669 36.6377 34.1898C36.9464 34.5317 37.1007 34.9591 37.1007 35.4719ZM31.514 31.2837V32.8507H33.6437C33.8701 32.8507 34.0758 32.7937 34.261 32.6797C34.4462 32.5468 34.5388 32.3378 34.5388 32.0529C34.5388 31.806 34.4565 31.6161 34.2919 31.4831C34.1273 31.3501 33.9318 31.2837 33.7055 31.2837H31.514ZM34.9092 35.13C34.9092 34.8831 34.8269 34.6741 34.6623 34.5032C34.4771 34.3512 34.261 34.2753 34.0141 34.2753H31.514V35.9278H33.9215C34.2096 35.9278 34.4462 35.8518 34.6314 35.6998C34.8166 35.5479 34.9092 35.3579 34.9092 35.13Z" fill="white"/>
<path d="M44.9711 35.8993V37.4378H38.3658V29.7451H44.8477V31.3121H40.5573V32.8222H44.2303V34.2468H40.5573V35.8993H44.9711Z" fill="white"/>
<path d="M51.8853 31.996C51.8442 31.9771 51.7413 31.9296 51.5767 31.8536C51.4121 31.7776 51.2166 31.6921 50.9902 31.5972C50.7433 31.5022 50.4861 31.4262 50.2186 31.3692C49.9305 31.3122 49.6424 31.2838 49.3543 31.2838C48.984 31.2838 48.7062 31.3312 48.521 31.4262C48.3152 31.5402 48.2123 31.7016 48.2123 31.9106C48.2123 32.0435 48.2535 32.148 48.3358 32.224C48.4387 32.3189 48.5621 32.4044 48.7062 32.4804C48.8708 32.5374 49.0766 32.5944 49.3235 32.6513C49.5704 32.7083 49.8482 32.7748 50.1569 32.8508C50.6095 32.9458 51.0211 33.0597 51.3915 33.1927C51.7413 33.3066 52.05 33.4491 52.3175 33.6201C52.5644 33.81 52.7599 34.0284 52.9039 34.2754C53.0274 34.5223 53.0891 34.8262 53.0891 35.1871C53.0891 35.624 52.9965 35.9849 52.8113 36.2698C52.6055 36.5737 52.338 36.8206 52.0088 37.0105C51.6796 37.2005 51.3092 37.3334 50.8976 37.4094C50.4655 37.4854 50.0231 37.5234 49.5704 37.5234C49.2206 37.5234 48.8708 37.5044 48.521 37.4664C48.1712 37.4284 47.8214 37.3619 47.4715 37.267C47.1217 37.191 46.7822 37.096 46.453 36.9821C46.1443 36.8681 45.8459 36.7351 45.5579 36.5832L46.5147 35.0161C46.5558 35.0541 46.6793 35.1301 46.8851 35.2441C47.0703 35.339 47.3069 35.434 47.595 35.529C47.8831 35.643 48.202 35.7379 48.5518 35.8139C48.9017 35.8899 49.2515 35.9279 49.6013 35.9279C50.3832 35.9279 50.7742 35.7379 50.7742 35.358C50.7742 35.2061 50.7124 35.0826 50.589 34.9877C50.4655 34.8927 50.3112 34.8072 50.126 34.7312C49.9202 34.6553 49.6836 34.5888 49.4161 34.5318C49.128 34.4748 48.8193 34.3988 48.4901 34.3039C48.058 34.2089 47.6876 34.0949 47.3789 33.962C47.0703 33.829 46.8028 33.6865 46.5764 33.5346C46.3707 33.3636 46.2163 33.1737 46.1134 32.9648C46.0106 32.7368 45.9591 32.4804 45.9591 32.1955C45.9591 31.7966 46.0517 31.4357 46.2369 31.1128C46.4221 30.8089 46.6793 30.5525 47.0086 30.3435C47.3172 30.1346 47.6773 29.9731 48.0889 29.8592C48.521 29.7452 48.9634 29.6882 49.4161 29.6882C49.7659 29.6882 50.0951 29.7167 50.4038 29.7737C50.7124 29.8117 51.0108 29.8782 51.2989 29.9731C51.587 30.0491 51.8648 30.1346 52.1323 30.2296C52.3792 30.3245 52.6055 30.429 52.8113 30.543L51.8853 31.996Z" fill="white"/>
<path d="M61.4844 31.3121H58.6448V37.4378H56.4842V31.3121H53.6136V29.7451H61.4844V31.3121Z" fill="white"/>
<path d="M26.4945 43.5863H28.1675V50.8679H26.4864L26.4221 49.8121C26.1861 50.1859 25.8671 50.4868 25.4649 50.715C25.0628 50.9432 24.5882 51.0572 24.0412 51.0572C23.4514 51.0572 22.8964 50.9577 22.3763 50.7587C21.8561 50.5548 21.3977 50.2733 21.0009 49.914C20.6094 49.5548 20.3038 49.1422 20.0839 48.6762C19.8641 48.2053 19.7542 47.7004 19.7542 47.1616C19.7542 46.6422 19.8614 46.1543 20.0759 45.698C20.2904 45.2368 20.588 44.8339 20.9687 44.4893C21.3494 44.1446 21.7891 43.8752 22.2878 43.681C22.7919 43.482 23.3308 43.3825 23.9045 43.3825C24.489 43.3825 25.0038 43.5038 25.4488 43.7465C25.8993 43.9844 26.2719 44.2902 26.5669 44.664L26.4945 43.5863ZM24.001 49.5936C24.4729 49.5936 24.8858 49.4893 25.2397 49.2805C25.5936 49.0669 25.8671 48.7805 26.0601 48.4213C26.2585 48.0621 26.3577 47.664 26.3577 47.2271C26.3577 46.7854 26.2585 46.3849 26.0601 46.0257C25.8617 45.6664 25.5856 45.3825 25.2317 45.1737C24.8831 44.9601 24.4729 44.8533 24.001 44.8533C23.5345 44.8533 23.1082 44.9601 22.7221 45.1737C22.3361 45.3873 22.0304 45.6737 21.8052 46.033C21.58 46.3922 21.4674 46.7902 21.4674 47.2271C21.4674 47.6689 21.5827 48.0694 21.8132 48.4286C22.0492 48.783 22.3575 49.0669 22.7382 49.2805C23.1243 49.4893 23.5452 49.5936 24.001 49.5936Z" fill="white"/>
<path d="M33.0292 50.8679H31.3642L28.6697 43.5863H30.3105L32.2088 48.698L34.0909 43.5863H35.78L37.6621 48.698L39.5523 43.5863H41.1932L38.5067 50.8679H36.8256L34.9274 45.7198L33.0292 50.8679Z" fill="white"/>
<path d="M48.0644 43.5863H49.7374V50.8679H48.0564L47.992 49.8121C47.7561 50.1859 47.4371 50.4868 47.0349 50.715C46.6327 50.9432 46.1582 51.0572 45.6112 51.0572C45.0214 51.0572 44.4664 50.9577 43.9462 50.7587C43.4261 50.5548 42.9676 50.2733 42.5708 49.914C42.1794 49.5548 41.8737 49.1422 41.6539 48.6762C41.434 48.2053 41.3241 47.7004 41.3241 47.1616C41.3241 46.6422 41.4314 46.1543 41.6459 45.698C41.8603 45.2368 42.1579 44.8339 42.5387 44.4893C42.9194 44.1446 43.3591 43.8752 43.8578 43.681C44.3618 43.482 44.9007 43.3825 45.4745 43.3825C46.059 43.3825 46.5737 43.5038 47.0188 43.7465C47.4692 43.9844 47.8419 44.2902 48.1368 44.664L48.0644 43.5863ZM45.571 49.5936C46.0429 49.5936 46.4558 49.4893 46.8097 49.2805C47.1636 49.0669 47.4371 48.7805 47.6301 48.4213C47.8285 48.0621 47.9277 47.664 47.9277 47.2271C47.9277 46.7854 47.8285 46.3849 47.6301 46.0257C47.4317 45.6664 47.1555 45.3825 46.8016 45.1737C46.4531 44.9601 46.0429 44.8533 45.571 44.8533C45.1045 44.8533 44.6782 44.9601 44.2921 45.1737C43.906 45.3873 43.6004 45.6737 43.3752 46.033C43.15 46.3922 43.0373 46.7902 43.0373 47.2271C43.0373 47.6689 43.1526 48.0694 43.3832 48.4286C43.6192 48.783 43.9275 49.0669 44.3082 49.2805C44.6943 49.4893 45.1152 49.5936 45.571 49.5936Z" fill="white"/>
<path d="M51.0207 50.8679V43.5863H52.6938V44.3582C52.9726 44.0572 53.3158 43.8194 53.7233 43.6446C54.1308 43.4698 54.5705 43.3825 55.0424 43.3825C55.3427 43.3825 55.6403 43.4189 55.9352 43.4917L55.2676 45.0208C55.0585 44.948 54.8494 44.9116 54.6402 44.9116C54.2863 44.9116 53.9619 44.9917 53.667 45.1519C53.3721 45.3072 53.1361 45.5184 52.9592 45.7854C52.7822 46.0524 52.6938 46.3485 52.6938 46.6737V50.8679H51.0207Z" fill="white"/>
<path d="M62.4317 39.9456H64.1047V50.8679H62.4317V49.7975C62.169 50.1762 61.8258 50.482 61.4022 50.715C60.9786 50.9432 60.4826 51.0572 59.9142 51.0572C59.3297 51.0572 58.7827 50.9577 58.2733 50.7587C57.7639 50.5597 57.3135 50.2854 56.922 49.9359C56.536 49.5815 56.233 49.1737 56.0131 48.7126C55.7933 48.2514 55.6834 47.7563 55.6834 47.2271C55.6834 46.698 55.7933 46.2029 56.0131 45.7417C56.233 45.2757 56.536 44.8679 56.922 44.5184C57.3135 44.164 57.7639 43.8873 58.2733 43.6883C58.7827 43.4893 59.3297 43.3897 59.9142 43.3897C60.4826 43.3897 60.9786 43.5062 61.4022 43.7393C61.8258 43.9674 62.169 44.2684 62.4317 44.6422V39.9456ZM59.9302 49.5936C60.4021 49.5936 60.815 49.4893 61.1689 49.2805C61.5228 49.0669 61.7963 48.7805 61.9893 48.4213C62.1877 48.0621 62.2869 47.664 62.2869 47.2271C62.2869 46.7854 62.1877 46.3849 61.9893 46.0257C61.7909 45.6664 61.5148 45.3825 61.1609 45.1737C60.8123 44.9601 60.4021 44.8533 59.9302 44.8533C59.4637 44.8533 59.0374 44.9601 58.6514 45.1737C58.2706 45.3873 57.965 45.6737 57.7344 46.033C57.5092 46.3922 57.3966 46.7902 57.3966 47.2271C57.3966 47.6689 57.5119 48.0694 57.7425 48.4286C57.9784 48.783 58.2867 49.0669 58.6674 49.2805C59.0535 49.4893 59.4745 49.5936 59.9302 49.5936Z" fill="white"/>
<path d="M68.1229 51.0063C67.6993 50.982 67.2864 50.9043 66.8842 50.7733C66.482 50.6422 66.1281 50.465 65.8225 50.2417C65.5222 50.0135 65.297 49.7466 65.1469 49.4407L66.5705 48.8873C66.6402 49.0184 66.7609 49.147 66.9325 49.2733C67.1094 49.3995 67.3159 49.5038 67.5518 49.5864C67.7877 49.664 68.0344 49.7029 68.2918 49.7029C68.5438 49.7029 68.7771 49.6713 68.9916 49.6082C69.2114 49.5402 69.3911 49.4383 69.5305 49.3024C69.6699 49.1665 69.7396 49.0038 69.7396 48.8145C69.7396 48.6009 69.6592 48.4359 69.4983 48.3194C69.3428 48.198 69.1471 48.1058 68.9111 48.0427C68.6752 47.9796 68.4393 47.9189 68.2033 47.8606C67.6778 47.7538 67.1952 47.6082 66.7555 47.4237C66.3212 47.2344 65.9753 46.9941 65.7179 46.7029C65.4605 46.4067 65.3318 46.0451 65.3318 45.6179C65.3318 45.1519 65.4713 44.749 65.7501 44.4092C66.0289 44.0645 66.3936 43.7999 66.844 43.6155C67.2998 43.431 67.7851 43.3388 68.2998 43.3388C68.9433 43.3388 69.5331 43.4626 70.0694 43.7101C70.6056 43.9577 71.0158 44.2975 71.3 44.7296L69.9729 45.4431C69.8924 45.2975 69.7718 45.1664 69.6109 45.0499C69.45 44.9334 69.2677 44.8412 69.064 44.7732C68.8602 44.7004 68.6484 44.6592 68.4285 44.6495C68.1551 44.6397 67.9003 44.6689 67.6644 44.7368C67.4338 44.7999 67.2488 44.9019 67.1094 45.0427C66.97 45.1834 66.9003 45.363 66.9003 45.5815C66.9003 45.7951 66.9834 45.9553 67.1496 46.0621C67.3159 46.164 67.525 46.2465 67.777 46.3097C68.0344 46.3728 68.2972 46.4431 68.5653 46.5208C69.0425 46.6567 69.4902 46.8242 69.9085 47.0232C70.3268 47.2174 70.6646 47.4577 70.922 47.7441C71.1794 48.0305 71.3027 48.38 71.292 48.7927C71.292 49.249 71.1391 49.6495 70.8335 49.9941C70.5332 50.3388 70.1418 50.6009 69.6592 50.7805C69.1766 50.9601 68.6645 51.0354 68.1229 51.0063Z" fill="white"/>
</g>
</svg>
